<?xml version="1.0" encoding="utf-8"?>
<!-- Generator: Adobe Illustrator 18.1.1, SVG Export Plug-In . SVG Version: 6.00 Build 0)  -->
<svg version="1.1" id="Layer_1" xmlns="http://www.w3.org/2000/svg" xmlns:xlink="http://www.w3.org/1999/xlink" x="0px" y="0px"
	 viewBox="0 0 180 55" enable-background="new 0 0 180 55" xml:space="preserve">
<g>
	<path fill-rule="evenodd" clip-rule="evenodd" fill="#231F20" d="M13.9,34.5v16.9H4V1.3h13.9c3.1,0,6.2,0.2,9.2,1
		c6.7,1.7,10.6,8.2,10.6,14.8c0,3.8-0.9,6.6-2.9,9.7c-1.9,3-6.1,5.8-9.6,6.8l13.3,17.7H26.6L13.9,34.5L13.9,34.5z M13.9,26.2
		c7,0,14.3,0.5,14.3-8.8c0-8.3-8.1-8.2-14.3-8.2V26.2z"/>
	<path fill-rule="evenodd" clip-rule="evenodd" fill="#231F20" d="M69.4,21v14.6c0,2.3-0.2,4.7-0.7,7c-0.5,2.4-2,4.4-4,5.9
		c-1.3,1-2.9,1.7-4.5,2.1c-1.7,0.5-3.4,0.8-5.2,0.8c-0.2,0-0.4,0-0.6,0c-0.2,0-0.4,0-0.5,0c-0.2,0-0.4,0-0.5,0c-0.2,0-0.4,0-0.5,0
		c-1.8,0-3.6-0.4-5.3-0.8c-1.6-0.4-3.2-1.1-4.6-2.1c-2-1.5-3.5-3.4-4-5.9c-0.5-2.3-0.7-4.7-0.7-7V21h9.8v15.3c0,1.5,0.1,3.3,0.9,4.7
		c0.8,1.5,3.3,1.9,4.8,1.9c1.5,0,4.3-0.5,5.1-1.9c0.8-1.4,0.8-3.2,0.8-4.8V21H69.4z"/>
	<path fill-rule="evenodd" clip-rule="evenodd" fill="#231F20" d="M80.9,22.9c0.3-0.2,0.5-0.4,0.8-0.6c0.5-0.4,1.1-0.7,1.7-1
		c0.7-0.4,1.5-0.6,2.3-0.8c1-0.2,2-0.3,2.9-0.3c2,0,3.9,0.4,5.7,1.2c1.7,0.8,3.2,1.9,4.4,3.3c1.3,1.5,2.2,3.2,2.8,5.1
		c0.7,2.1,1,4.3,1,6.5c0,2.2-0.3,4.4-1.1,6.5c-0.7,1.9-1.7,3.6-3,5c-1.3,1.4-2.8,2.5-4.5,3.2c-1.8,0.8-3.7,1.1-5.7,1.1
		c-1,0-2.1-0.1-3-0.4c-0.8-0.2-1.6-0.5-2.4-0.9c-0.6-0.3-1.2-0.6-1.7-1c-0.3-0.2-0.6-0.4-0.8-0.7c0,0.3,0,0.6,0,0.9v1.3h-9.1V9.3H81
		v11.9C81,21.7,81,22.3,80.9,22.9L80.9,22.9z M80.6,36.3c0,0.9,0.1,1.9,0.4,2.8c0.2,0.9,0.6,1.7,1.1,2.4c0.5,0.7,1.1,1.2,1.9,1.6
		c0.8,0.4,1.7,0.6,2.6,0.6c1.1,0,2.1-0.3,3-0.9c1-0.6,1.7-1.5,2.2-2.5c0.6-1.3,0.9-2.7,0.9-4.1c0-1.4-0.2-2.8-0.8-4.1
		c-0.5-1.1-1.2-2-2.1-2.6c-0.9-0.6-2-0.9-3.1-0.9c-0.8,0-1.5,0.1-2.2,0.4c-0.7,0.3-1.4,0.8-1.9,1.4c-0.6,0.7-1,1.5-1.3,2.4
		C80.8,34,80.6,35.2,80.6,36.3z"/>
	<polygon fill="#D12127" points="104.3,51.3 104.3,1.2 135.1,1.2 135.1,12.1 117.8,12.1 117.8,20.9 135.1,20.9 135.1,31.6 
		117.8,31.6 117.8,40.1 135.1,40.1 135.1,51.3 	"/>
	<polygon fill-rule="evenodd" clip-rule="evenodd" fill="#D12127" points="162.2,51.3 155.5,43.8 148.9,51.3 135.1,51.3 148.6,36.1 
		135.1,20.9 149.4,20.9 156.1,28.3 162.5,20.9 176.3,20.9 162.8,36 176.5,51.3 	"/>
</g>
</svg>
